<mxfile host="app.diagrams.net" modified="2023-08-21T12:52:13.269Z" agent="Mozilla/5.0 (Windows NT 10.0; Win64; x64; rv:109.0) Gecko/20100101 Firefox/116.0" etag="8JvPhZOFiZQdRKZDHdRO" version="21.6.6" type="device">
  <diagram name="Seite-1" id="Jrwa2zBKotpQ11cqLeJJ">
    <mxGraphModel dx="1674" dy="1963" grid="1" gridSize="10" guides="1" tooltips="1" connect="1" arrows="1" fold="1" page="1" pageScale="1" pageWidth="827" pageHeight="1169" math="0" shadow="0">
      <root>
        <mxCell id="0" />
        <mxCell id="1" parent="0" />
        <mxCell id="lNHSzIOZlk993kWURvfF-6" value="" style="edgeStyle=orthogonalEdgeStyle;rounded=0;orthogonalLoop=1;jettySize=auto;html=1;" parent="1" source="lNHSzIOZlk993kWURvfF-1" target="lNHSzIOZlk993kWURvfF-5" edge="1">
          <mxGeometry relative="1" as="geometry" />
        </mxCell>
        <mxCell id="lNHSzIOZlk993kWURvfF-17" style="edgeStyle=orthogonalEdgeStyle;rounded=0;orthogonalLoop=1;jettySize=auto;html=1;entryX=0;entryY=0.5;entryDx=0;entryDy=0;exitX=0.5;exitY=0;exitDx=0;exitDy=0;" parent="1" source="lNHSzIOZlk993kWURvfF-1" target="lNHSzIOZlk993kWURvfF-14" edge="1">
          <mxGeometry relative="1" as="geometry" />
        </mxCell>
        <mxCell id="lNHSzIOZlk993kWURvfF-19" value="" style="edgeStyle=orthogonalEdgeStyle;rounded=0;orthogonalLoop=1;jettySize=auto;html=1;" parent="1" source="lNHSzIOZlk993kWURvfF-1" target="lNHSzIOZlk993kWURvfF-18" edge="1">
          <mxGeometry relative="1" as="geometry" />
        </mxCell>
        <mxCell id="lNHSzIOZlk993kWURvfF-21" value="" style="edgeStyle=orthogonalEdgeStyle;rounded=0;orthogonalLoop=1;jettySize=auto;html=1;exitX=0.5;exitY=1;exitDx=0;exitDy=0;" parent="1" source="lNHSzIOZlk993kWURvfF-1" target="lNHSzIOZlk993kWURvfF-20" edge="1">
          <mxGeometry relative="1" as="geometry" />
        </mxCell>
        <mxCell id="lNHSzIOZlk993kWURvfF-1" value="Fach" style="rounded=0;whiteSpace=wrap;html=1;" parent="1" vertex="1">
          <mxGeometry x="80" y="190" width="120" height="60" as="geometry" />
        </mxCell>
        <mxCell id="lNHSzIOZlk993kWURvfF-9" value="" style="edgeStyle=orthogonalEdgeStyle;rounded=0;orthogonalLoop=1;jettySize=auto;html=1;" parent="1" source="lNHSzIOZlk993kWURvfF-2" target="lNHSzIOZlk993kWURvfF-8" edge="1">
          <mxGeometry relative="1" as="geometry" />
        </mxCell>
        <mxCell id="lNHSzIOZlk993kWURvfF-25" value="" style="edgeStyle=orthogonalEdgeStyle;rounded=0;orthogonalLoop=1;jettySize=auto;html=1;" parent="1" source="lNHSzIOZlk993kWURvfF-2" target="lNHSzIOZlk993kWURvfF-24" edge="1">
          <mxGeometry relative="1" as="geometry" />
        </mxCell>
        <mxCell id="lNHSzIOZlk993kWURvfF-27" value="" style="edgeStyle=orthogonalEdgeStyle;rounded=0;orthogonalLoop=1;jettySize=auto;html=1;" parent="1" source="lNHSzIOZlk993kWURvfF-2" target="lNHSzIOZlk993kWURvfF-26" edge="1">
          <mxGeometry relative="1" as="geometry" />
        </mxCell>
        <mxCell id="lNHSzIOZlk993kWURvfF-2" value="Themengebiet" style="rounded=0;whiteSpace=wrap;html=1;" parent="1" vertex="1">
          <mxGeometry x="380" y="190" width="120" height="60" as="geometry" />
        </mxCell>
        <mxCell id="lNHSzIOZlk993kWURvfF-12" value="" style="edgeStyle=orthogonalEdgeStyle;rounded=0;orthogonalLoop=1;jettySize=auto;html=1;" parent="1" source="lNHSzIOZlk993kWURvfF-3" target="lNHSzIOZlk993kWURvfF-11" edge="1">
          <mxGeometry relative="1" as="geometry" />
        </mxCell>
        <mxCell id="lNHSzIOZlk993kWURvfF-29" value="" style="edgeStyle=orthogonalEdgeStyle;rounded=0;orthogonalLoop=1;jettySize=auto;html=1;" parent="1" source="lNHSzIOZlk993kWURvfF-3" target="lNHSzIOZlk993kWURvfF-28" edge="1">
          <mxGeometry relative="1" as="geometry" />
        </mxCell>
        <mxCell id="lNHSzIOZlk993kWURvfF-30" value="" style="edgeStyle=orthogonalEdgeStyle;rounded=0;orthogonalLoop=1;jettySize=auto;html=1;" parent="1" source="lNHSzIOZlk993kWURvfF-3" target="lNHSzIOZlk993kWURvfF-28" edge="1">
          <mxGeometry relative="1" as="geometry" />
        </mxCell>
        <mxCell id="lNHSzIOZlk993kWURvfF-32" value="" style="edgeStyle=orthogonalEdgeStyle;rounded=0;orthogonalLoop=1;jettySize=auto;html=1;" parent="1" source="lNHSzIOZlk993kWURvfF-3" target="lNHSzIOZlk993kWURvfF-31" edge="1">
          <mxGeometry relative="1" as="geometry" />
        </mxCell>
        <mxCell id="lNHSzIOZlk993kWURvfF-33" value="" style="edgeStyle=orthogonalEdgeStyle;rounded=0;orthogonalLoop=1;jettySize=auto;html=1;" parent="1" source="lNHSzIOZlk993kWURvfF-3" target="lNHSzIOZlk993kWURvfF-31" edge="1">
          <mxGeometry relative="1" as="geometry" />
        </mxCell>
        <mxCell id="lNHSzIOZlk993kWURvfF-36" value="" style="edgeStyle=orthogonalEdgeStyle;rounded=0;orthogonalLoop=1;jettySize=auto;html=1;" parent="1" source="lNHSzIOZlk993kWURvfF-3" target="lNHSzIOZlk993kWURvfF-35" edge="1">
          <mxGeometry relative="1" as="geometry" />
        </mxCell>
        <mxCell id="5iTqXtz5Ba4BM0Qys4ix-34" style="edgeStyle=orthogonalEdgeStyle;rounded=0;orthogonalLoop=1;jettySize=auto;html=1;exitX=1;exitY=0.5;exitDx=0;exitDy=0;" edge="1" parent="1" target="5iTqXtz5Ba4BM0Qys4ix-9">
          <mxGeometry relative="1" as="geometry">
            <mxPoint x="821" y="60" as="sourcePoint" />
            <mxPoint x="921.76" y="-10.420000000000073" as="targetPoint" />
            <Array as="points">
              <mxPoint x="920" y="60" />
            </Array>
          </mxGeometry>
        </mxCell>
        <mxCell id="lNHSzIOZlk993kWURvfF-3" value="Frage" style="rounded=0;whiteSpace=wrap;html=1;" parent="1" vertex="1">
          <mxGeometry x="690" y="190" width="120" height="60" as="geometry" />
        </mxCell>
        <mxCell id="lNHSzIOZlk993kWURvfF-38" value="" style="edgeStyle=orthogonalEdgeStyle;rounded=0;orthogonalLoop=1;jettySize=auto;html=1;" parent="1" source="lNHSzIOZlk993kWURvfF-4" target="lNHSzIOZlk993kWURvfF-37" edge="1">
          <mxGeometry relative="1" as="geometry" />
        </mxCell>
        <mxCell id="lNHSzIOZlk993kWURvfF-39" value="" style="edgeStyle=orthogonalEdgeStyle;rounded=0;orthogonalLoop=1;jettySize=auto;html=1;" parent="1" source="lNHSzIOZlk993kWURvfF-4" target="lNHSzIOZlk993kWURvfF-37" edge="1">
          <mxGeometry relative="1" as="geometry" />
        </mxCell>
        <mxCell id="lNHSzIOZlk993kWURvfF-41" value="" style="edgeStyle=orthogonalEdgeStyle;rounded=0;orthogonalLoop=1;jettySize=auto;html=1;" parent="1" source="lNHSzIOZlk993kWURvfF-4" target="lNHSzIOZlk993kWURvfF-40" edge="1">
          <mxGeometry relative="1" as="geometry" />
        </mxCell>
        <mxCell id="lNHSzIOZlk993kWURvfF-43" value="" style="edgeStyle=orthogonalEdgeStyle;rounded=0;orthogonalLoop=1;jettySize=auto;html=1;" parent="1" source="lNHSzIOZlk993kWURvfF-4" target="lNHSzIOZlk993kWURvfF-42" edge="1">
          <mxGeometry relative="1" as="geometry">
            <Array as="points">
              <mxPoint x="1070" y="280" />
              <mxPoint x="1195" y="280" />
            </Array>
          </mxGeometry>
        </mxCell>
        <mxCell id="lNHSzIOZlk993kWURvfF-4" value="Antwort" style="rounded=0;whiteSpace=wrap;html=1;" parent="1" vertex="1">
          <mxGeometry x="1010" y="190" width="120" height="60" as="geometry" />
        </mxCell>
        <mxCell id="lNHSzIOZlk993kWURvfF-7" value="" style="edgeStyle=orthogonalEdgeStyle;rounded=0;orthogonalLoop=1;jettySize=auto;html=1;" parent="1" source="lNHSzIOZlk993kWURvfF-5" target="lNHSzIOZlk993kWURvfF-2" edge="1">
          <mxGeometry relative="1" as="geometry" />
        </mxCell>
        <mxCell id="lNHSzIOZlk993kWURvfF-51" value="" style="edgeStyle=orthogonalEdgeStyle;rounded=0;orthogonalLoop=1;jettySize=auto;html=1;" parent="1" source="lNHSzIOZlk993kWURvfF-5" target="lNHSzIOZlk993kWURvfF-50" edge="1">
          <mxGeometry relative="1" as="geometry" />
        </mxCell>
        <mxCell id="lNHSzIOZlk993kWURvfF-5" value="hat" style="rhombus;whiteSpace=wrap;html=1;rounded=0;" parent="1" vertex="1">
          <mxGeometry x="240" y="180" width="80" height="80" as="geometry" />
        </mxCell>
        <mxCell id="lNHSzIOZlk993kWURvfF-10" value="" style="edgeStyle=orthogonalEdgeStyle;rounded=0;orthogonalLoop=1;jettySize=auto;html=1;" parent="1" source="lNHSzIOZlk993kWURvfF-8" target="lNHSzIOZlk993kWURvfF-3" edge="1">
          <mxGeometry relative="1" as="geometry" />
        </mxCell>
        <mxCell id="lNHSzIOZlk993kWURvfF-57" value="" style="edgeStyle=orthogonalEdgeStyle;rounded=0;orthogonalLoop=1;jettySize=auto;html=1;" parent="1" source="lNHSzIOZlk993kWURvfF-8" target="lNHSzIOZlk993kWURvfF-56" edge="1">
          <mxGeometry relative="1" as="geometry" />
        </mxCell>
        <mxCell id="lNHSzIOZlk993kWURvfF-8" value="hat" style="rhombus;whiteSpace=wrap;html=1;rounded=0;" parent="1" vertex="1">
          <mxGeometry x="550" y="180" width="80" height="80" as="geometry" />
        </mxCell>
        <mxCell id="lNHSzIOZlk993kWURvfF-13" value="" style="edgeStyle=orthogonalEdgeStyle;rounded=0;orthogonalLoop=1;jettySize=auto;html=1;" parent="1" source="lNHSzIOZlk993kWURvfF-11" target="lNHSzIOZlk993kWURvfF-4" edge="1">
          <mxGeometry relative="1" as="geometry" />
        </mxCell>
        <mxCell id="lNHSzIOZlk993kWURvfF-59" value="" style="edgeStyle=orthogonalEdgeStyle;rounded=0;orthogonalLoop=1;jettySize=auto;html=1;" parent="1" source="lNHSzIOZlk993kWURvfF-11" target="lNHSzIOZlk993kWURvfF-58" edge="1">
          <mxGeometry relative="1" as="geometry" />
        </mxCell>
        <mxCell id="lNHSzIOZlk993kWURvfF-11" value="hat" style="rhombus;whiteSpace=wrap;html=1;rounded=0;" parent="1" vertex="1">
          <mxGeometry x="870" y="180" width="80" height="80" as="geometry" />
        </mxCell>
        <mxCell id="lNHSzIOZlk993kWURvfF-16" style="edgeStyle=orthogonalEdgeStyle;rounded=0;orthogonalLoop=1;jettySize=auto;html=1;entryX=0.5;entryY=0;entryDx=0;entryDy=0;" parent="1" source="lNHSzIOZlk993kWURvfF-14" target="lNHSzIOZlk993kWURvfF-3" edge="1">
          <mxGeometry relative="1" as="geometry" />
        </mxCell>
        <mxCell id="lNHSzIOZlk993kWURvfF-55" value="" style="edgeStyle=orthogonalEdgeStyle;rounded=0;orthogonalLoop=1;jettySize=auto;html=1;" parent="1" source="lNHSzIOZlk993kWURvfF-14" target="lNHSzIOZlk993kWURvfF-54" edge="1">
          <mxGeometry relative="1" as="geometry" />
        </mxCell>
        <mxCell id="lNHSzIOZlk993kWURvfF-14" value="hat" style="rhombus;whiteSpace=wrap;html=1;rounded=0;" parent="1" vertex="1">
          <mxGeometry x="400" y="60" width="80" height="80" as="geometry" />
        </mxCell>
        <mxCell id="lNHSzIOZlk993kWURvfF-18" value="ID" style="ellipse;whiteSpace=wrap;html=1;rounded=0;" parent="1" vertex="1">
          <mxGeometry x="140" y="310" width="80" height="80" as="geometry" />
        </mxCell>
        <mxCell id="lNHSzIOZlk993kWURvfF-20" value="Name" style="ellipse;whiteSpace=wrap;html=1;rounded=0;" parent="1" vertex="1">
          <mxGeometry x="60" y="310" width="80" height="80" as="geometry" />
        </mxCell>
        <mxCell id="lNHSzIOZlk993kWURvfF-22" value="1" style="text;html=1;strokeColor=none;fillColor=none;align=center;verticalAlign=middle;whiteSpace=wrap;rounded=0;" parent="1" vertex="1">
          <mxGeometry x="190" y="190" width="60" height="30" as="geometry" />
        </mxCell>
        <mxCell id="lNHSzIOZlk993kWURvfF-23" value="n" style="text;html=1;strokeColor=none;fillColor=none;align=center;verticalAlign=middle;whiteSpace=wrap;rounded=0;" parent="1" vertex="1">
          <mxGeometry x="323" y="190" width="60" height="30" as="geometry" />
        </mxCell>
        <mxCell id="lNHSzIOZlk993kWURvfF-24" value="ID" style="ellipse;whiteSpace=wrap;html=1;rounded=0;" parent="1" vertex="1">
          <mxGeometry x="439" y="310" width="80" height="80" as="geometry" />
        </mxCell>
        <mxCell id="lNHSzIOZlk993kWURvfF-26" value="Name" style="ellipse;whiteSpace=wrap;html=1;rounded=0;" parent="1" vertex="1">
          <mxGeometry x="359" y="310" width="80" height="80" as="geometry" />
        </mxCell>
        <mxCell id="lNHSzIOZlk993kWURvfF-28" value="&lt;div&gt;ID&lt;/div&gt;" style="ellipse;whiteSpace=wrap;html=1;rounded=0;" parent="1" vertex="1">
          <mxGeometry x="710" y="310" width="80" height="80" as="geometry" />
        </mxCell>
        <mxCell id="lNHSzIOZlk993kWURvfF-31" value="Name" style="ellipse;whiteSpace=wrap;html=1;rounded=0;" parent="1" vertex="1">
          <mxGeometry x="790" y="310" width="80" height="80" as="geometry" />
        </mxCell>
        <mxCell id="lNHSzIOZlk993kWURvfF-35" value="&lt;div&gt;Punkte&lt;/div&gt;" style="ellipse;whiteSpace=wrap;html=1;rounded=0;" parent="1" vertex="1">
          <mxGeometry x="630" y="310" width="80" height="80" as="geometry" />
        </mxCell>
        <mxCell id="lNHSzIOZlk993kWURvfF-37" value="ID" style="ellipse;whiteSpace=wrap;html=1;rounded=0;" parent="1" vertex="1">
          <mxGeometry x="950" y="310" width="80" height="80" as="geometry" />
        </mxCell>
        <mxCell id="lNHSzIOZlk993kWURvfF-40" value="Name" style="ellipse;whiteSpace=wrap;html=1;rounded=0;" parent="1" vertex="1">
          <mxGeometry x="1030" y="310" width="80" height="80" as="geometry" />
        </mxCell>
        <mxCell id="lNHSzIOZlk993kWURvfF-42" value="Frage Richtig oder Falsch&lt;br&gt;Boolean: True/False" style="ellipse;whiteSpace=wrap;html=1;rounded=0;" parent="1" vertex="1">
          <mxGeometry x="1110" y="310" width="130" height="80" as="geometry" />
        </mxCell>
        <mxCell id="lNHSzIOZlk993kWURvfF-44" value="1" style="text;html=1;strokeColor=none;fillColor=none;align=center;verticalAlign=middle;whiteSpace=wrap;rounded=0;" parent="1" vertex="1">
          <mxGeometry x="500" y="190" width="60" height="30" as="geometry" />
        </mxCell>
        <mxCell id="lNHSzIOZlk993kWURvfF-45" value="1" style="text;html=1;strokeColor=none;fillColor=none;align=center;verticalAlign=middle;whiteSpace=wrap;rounded=0;" parent="1" vertex="1">
          <mxGeometry x="807" y="191" width="60" height="30" as="geometry" />
        </mxCell>
        <mxCell id="lNHSzIOZlk993kWURvfF-46" value="1" style="text;html=1;strokeColor=none;fillColor=none;align=center;verticalAlign=middle;whiteSpace=wrap;rounded=0;" parent="1" vertex="1">
          <mxGeometry x="140" y="70" width="60" height="30" as="geometry" />
        </mxCell>
        <mxCell id="lNHSzIOZlk993kWURvfF-47" value="n" style="text;html=1;strokeColor=none;fillColor=none;align=center;verticalAlign=middle;whiteSpace=wrap;rounded=0;" parent="1" vertex="1">
          <mxGeometry x="633" y="190" width="60" height="30" as="geometry" />
        </mxCell>
        <mxCell id="lNHSzIOZlk993kWURvfF-48" value="n" style="text;html=1;strokeColor=none;fillColor=none;align=center;verticalAlign=middle;whiteSpace=wrap;rounded=0;" parent="1" vertex="1">
          <mxGeometry x="950" y="190" width="60" height="30" as="geometry" />
        </mxCell>
        <mxCell id="lNHSzIOZlk993kWURvfF-49" value="n" style="text;html=1;strokeColor=none;fillColor=none;align=center;verticalAlign=middle;whiteSpace=wrap;rounded=0;" parent="1" vertex="1">
          <mxGeometry x="690" y="70" width="60" height="30" as="geometry" />
        </mxCell>
        <mxCell id="lNHSzIOZlk993kWURvfF-50" value="FachID" style="ellipse;whiteSpace=wrap;html=1;rounded=0;" parent="1" vertex="1">
          <mxGeometry x="255" y="112" width="50" height="50" as="geometry" />
        </mxCell>
        <mxCell id="lNHSzIOZlk993kWURvfF-54" value="FachID" style="ellipse;whiteSpace=wrap;html=1;rounded=0;" parent="1" vertex="1">
          <mxGeometry x="415" y="-20" width="50" height="50" as="geometry" />
        </mxCell>
        <mxCell id="lNHSzIOZlk993kWURvfF-56" value="ThemengebietID" style="ellipse;whiteSpace=wrap;html=1;rounded=0;" parent="1" vertex="1">
          <mxGeometry x="537.5" y="112" width="105" height="50" as="geometry" />
        </mxCell>
        <mxCell id="lNHSzIOZlk993kWURvfF-58" value="FrageID" style="ellipse;whiteSpace=wrap;html=1;rounded=0;" parent="1" vertex="1">
          <mxGeometry x="885" y="112" width="50" height="50" as="geometry" />
        </mxCell>
        <mxCell id="5iTqXtz5Ba4BM0Qys4ix-6" style="edgeStyle=orthogonalEdgeStyle;rounded=0;orthogonalLoop=1;jettySize=auto;html=1;exitX=0.5;exitY=0;exitDx=0;exitDy=0;entryX=0.5;entryY=1;entryDx=0;entryDy=0;" edge="1" parent="1" source="5iTqXtz5Ba4BM0Qys4ix-1" target="5iTqXtz5Ba4BM0Qys4ix-2">
          <mxGeometry relative="1" as="geometry">
            <mxPoint x="610" y="-110" as="targetPoint" />
            <Array as="points">
              <mxPoint x="610" y="-90" />
              <mxPoint x="529" y="-90" />
            </Array>
          </mxGeometry>
        </mxCell>
        <mxCell id="5iTqXtz5Ba4BM0Qys4ix-7" style="edgeStyle=orthogonalEdgeStyle;rounded=0;orthogonalLoop=1;jettySize=auto;html=1;entryX=0.588;entryY=1;entryDx=0;entryDy=0;entryPerimeter=0;" edge="1" parent="1">
          <mxGeometry relative="1" as="geometry">
            <mxPoint x="602.0400000000002" y="-70" as="sourcePoint" />
            <mxPoint x="689.0400000000002" y="-120" as="targetPoint" />
            <Array as="points">
              <mxPoint x="610" y="-70" />
              <mxPoint x="610" y="-90" />
              <mxPoint x="689" y="-90" />
            </Array>
          </mxGeometry>
        </mxCell>
        <mxCell id="5iTqXtz5Ba4BM0Qys4ix-8" style="edgeStyle=orthogonalEdgeStyle;rounded=0;orthogonalLoop=1;jettySize=auto;html=1;entryX=0.5;entryY=1;entryDx=0;entryDy=0;" edge="1" parent="1" source="5iTqXtz5Ba4BM0Qys4ix-1" target="5iTqXtz5Ba4BM0Qys4ix-4">
          <mxGeometry relative="1" as="geometry" />
        </mxCell>
        <mxCell id="5iTqXtz5Ba4BM0Qys4ix-31" value="" style="edgeStyle=orthogonalEdgeStyle;rounded=0;orthogonalLoop=1;jettySize=auto;html=1;" edge="1" parent="1" source="5iTqXtz5Ba4BM0Qys4ix-1" target="5iTqXtz5Ba4BM0Qys4ix-30">
          <mxGeometry relative="1" as="geometry" />
        </mxCell>
        <mxCell id="5iTqXtz5Ba4BM0Qys4ix-1" value="User" style="rounded=0;whiteSpace=wrap;html=1;" vertex="1" parent="1">
          <mxGeometry x="550" y="-70" width="120" height="60" as="geometry" />
        </mxCell>
        <mxCell id="5iTqXtz5Ba4BM0Qys4ix-2" value="ID" style="ellipse;whiteSpace=wrap;html=1;rounded=0;" vertex="1" parent="1">
          <mxGeometry x="489" y="-200" width="80" height="80" as="geometry" />
        </mxCell>
        <mxCell id="5iTqXtz5Ba4BM0Qys4ix-3" value="Passwort" style="ellipse;whiteSpace=wrap;html=1;rounded=0;" vertex="1" parent="1">
          <mxGeometry x="650" y="-200" width="80" height="80" as="geometry" />
        </mxCell>
        <mxCell id="5iTqXtz5Ba4BM0Qys4ix-4" value="Username" style="ellipse;whiteSpace=wrap;html=1;rounded=0;" vertex="1" parent="1">
          <mxGeometry x="570" y="-200" width="80" height="80" as="geometry" />
        </mxCell>
        <mxCell id="5iTqXtz5Ba4BM0Qys4ix-13" style="edgeStyle=orthogonalEdgeStyle;rounded=0;orthogonalLoop=1;jettySize=auto;html=1;entryX=0.5;entryY=1;entryDx=0;entryDy=0;" edge="1" parent="1" source="5iTqXtz5Ba4BM0Qys4ix-9" target="5iTqXtz5Ba4BM0Qys4ix-11">
          <mxGeometry relative="1" as="geometry" />
        </mxCell>
        <mxCell id="5iTqXtz5Ba4BM0Qys4ix-14" style="edgeStyle=orthogonalEdgeStyle;rounded=0;orthogonalLoop=1;jettySize=auto;html=1;entryX=0.5;entryY=1;entryDx=0;entryDy=0;" edge="1" parent="1" source="5iTqXtz5Ba4BM0Qys4ix-9" target="5iTqXtz5Ba4BM0Qys4ix-10">
          <mxGeometry relative="1" as="geometry" />
        </mxCell>
        <mxCell id="5iTqXtz5Ba4BM0Qys4ix-15" style="edgeStyle=orthogonalEdgeStyle;rounded=0;orthogonalLoop=1;jettySize=auto;html=1;entryX=0.5;entryY=1;entryDx=0;entryDy=0;" edge="1" parent="1" source="5iTqXtz5Ba4BM0Qys4ix-9" target="5iTqXtz5Ba4BM0Qys4ix-12">
          <mxGeometry relative="1" as="geometry" />
        </mxCell>
        <mxCell id="5iTqXtz5Ba4BM0Qys4ix-9" value="&lt;div&gt;User_Fragen&lt;/div&gt;" style="rounded=0;whiteSpace=wrap;html=1;" vertex="1" parent="1">
          <mxGeometry x="850" y="-70" width="120" height="60" as="geometry" />
        </mxCell>
        <mxCell id="5iTqXtz5Ba4BM0Qys4ix-10" value="FrageID" style="ellipse;whiteSpace=wrap;html=1;rounded=0;" vertex="1" parent="1">
          <mxGeometry x="870" y="-200" width="80" height="80" as="geometry" />
        </mxCell>
        <mxCell id="5iTqXtz5Ba4BM0Qys4ix-11" value="UserID" style="ellipse;whiteSpace=wrap;html=1;rounded=0;" vertex="1" parent="1">
          <mxGeometry x="790" y="-200" width="80" height="80" as="geometry" />
        </mxCell>
        <mxCell id="5iTqXtz5Ba4BM0Qys4ix-12" value="TimeStamp" style="ellipse;whiteSpace=wrap;html=1;rounded=0;" vertex="1" parent="1">
          <mxGeometry x="950" y="-200" width="80" height="80" as="geometry" />
        </mxCell>
        <mxCell id="5iTqXtz5Ba4BM0Qys4ix-33" style="edgeStyle=orthogonalEdgeStyle;rounded=0;orthogonalLoop=1;jettySize=auto;html=1;entryX=0;entryY=0.5;entryDx=0;entryDy=0;" edge="1" parent="1" source="5iTqXtz5Ba4BM0Qys4ix-30" target="5iTqXtz5Ba4BM0Qys4ix-9">
          <mxGeometry relative="1" as="geometry" />
        </mxCell>
        <mxCell id="5iTqXtz5Ba4BM0Qys4ix-30" value="hat" style="rhombus;whiteSpace=wrap;html=1;rounded=0;" vertex="1" parent="1">
          <mxGeometry x="720" y="-80" width="80" height="80" as="geometry" />
        </mxCell>
        <mxCell id="5iTqXtz5Ba4BM0Qys4ix-35" value="1" style="text;html=1;strokeColor=none;fillColor=none;align=center;verticalAlign=middle;whiteSpace=wrap;rounded=0;" vertex="1" parent="1">
          <mxGeometry x="763" y="161" width="60" height="30" as="geometry" />
        </mxCell>
        <mxCell id="5iTqXtz5Ba4BM0Qys4ix-36" value="1" style="text;html=1;strokeColor=none;fillColor=none;align=center;verticalAlign=middle;whiteSpace=wrap;rounded=0;" vertex="1" parent="1">
          <mxGeometry x="653" y="-66" width="60" height="30" as="geometry" />
        </mxCell>
        <mxCell id="5iTqXtz5Ba4BM0Qys4ix-37" value="n" style="text;html=1;strokeColor=none;fillColor=none;align=center;verticalAlign=middle;whiteSpace=wrap;rounded=0;" vertex="1" parent="1">
          <mxGeometry x="803" y="-66" width="60" height="30" as="geometry" />
        </mxCell>
        <mxCell id="5iTqXtz5Ba4BM0Qys4ix-38" value="n" style="text;html=1;strokeColor=none;fillColor=none;align=center;verticalAlign=middle;whiteSpace=wrap;rounded=0;" vertex="1" parent="1">
          <mxGeometry x="903" y="4" width="60" height="30" as="geometry" />
        </mxCell>
        <mxCell id="5iTqXtz5Ba4BM0Qys4ix-39" value="hat" style="rhombus;whiteSpace=wrap;html=1;rounded=0;" vertex="1" parent="1">
          <mxGeometry x="741" y="20" width="80" height="80" as="geometry" />
        </mxCell>
        <mxCell id="5iTqXtz5Ba4BM0Qys4ix-42" style="edgeStyle=orthogonalEdgeStyle;rounded=0;orthogonalLoop=1;jettySize=auto;html=1;" edge="1" parent="1" target="5iTqXtz5Ba4BM0Qys4ix-39">
          <mxGeometry relative="1" as="geometry">
            <mxPoint x="781" y="190" as="sourcePoint" />
          </mxGeometry>
        </mxCell>
      </root>
    </mxGraphModel>
  </diagram>
</mxfile>
